<svg id="visual" viewBox="0 0 900 150" width="900" height="150" xmlns="http://www.w3.org/2000/svg" xmlns:xlink="http://www.w3.org/1999/xlink" version="1.1"><rect x="0" y="0" width="900" height="150" fill="#d3a052"></rect><path d="M0 90L53 90L53 69L106 69L106 44L159 44L159 67L212 67L212 82L265 82L265 64L318 64L318 79L371 79L371 46L424 46L424 91L476 91L476 61L529 61L529 72L582 72L582 78L635 78L635 52L688 52L688 74L741 74L741 42L794 42L794 67L847 67L847 81L900 81L900 75L900 151L900 151L847 151L847 151L794 151L794 151L741 151L741 151L688 151L688 151L635 151L635 151L582 151L582 151L529 151L529 151L476 151L476 151L424 151L424 151L371 151L371 151L318 151L318 151L265 151L265 151L212 151L212 151L159 151L159 151L106 151L106 151L53 151L53 151L0 151Z" fill="#009473"></path><path d="M0 88L53 88L53 80L106 80L106 77L159 77L159 97L212 97L212 66L265 66L265 81L318 81L318 86L371 86L371 84L424 84L424 56L476 56L476 55L529 55L529 68L582 68L582 94L635 94L635 100L688 100L688 68L741 68L741 96L794 96L794 65L847 65L847 87L900 87L900 78L900 151L900 151L847 151L847 151L794 151L794 151L741 151L741 151L688 151L688 151L635 151L635 151L582 151L582 151L529 151L529 151L476 151L476 151L424 151L424 151L371 151L371 151L318 151L318 151L265 151L265 151L212 151L212 151L159 151L159 151L106 151L106 151L53 151L53 151L0 151Z" fill="#00837b"></path><path d="M0 108L53 108L53 94L106 94L106 75L159 75L159 107L212 107L212 96L265 96L265 88L318 88L318 90L371 90L371 97L424 97L424 73L476 73L476 100L529 100L529 82L582 82L582 92L635 92L635 92L688 92L688 73L741 73L741 92L794 92L794 82L847 82L847 92L900 92L900 103L900 151L900 151L847 151L847 151L794 151L794 151L741 151L741 151L688 151L688 151L635 151L635 151L582 151L582 151L529 151L529 151L476 151L476 151L424 151L424 151L371 151L371 151L318 151L318 151L265 151L265 151L212 151L212 151L159 151L159 151L106 151L106 151L53 151L53 151L0 151Z" fill="#00717b"></path><path d="M0 90L53 90L53 96L106 96L106 87L159 87L159 99L212 99L212 88L265 88L265 110L318 110L318 92L371 92L371 112L424 112L424 87L476 87L476 111L529 111L529 85L582 85L582 114L635 114L635 85L688 85L688 83L741 83L741 112L794 112L794 109L847 109L847 113L900 113L900 89L900 151L900 151L847 151L847 151L794 151L794 151L741 151L741 151L688 151L688 151L635 151L635 151L582 151L582 151L529 151L529 151L476 151L476 151L424 151L424 151L371 151L371 151L318 151L318 151L265 151L265 151L212 151L212 151L159 151L159 151L106 151L106 151L53 151L53 151L0 151Z" fill="#005f72"></path><path d="M0 101L53 101L53 110L106 110L106 114L159 114L159 109L212 109L212 108L265 108L265 105L318 105L318 99L371 99L371 121L424 121L424 104L476 104L476 112L529 112L529 103L582 103L582 97L635 97L635 102L688 102L688 124L741 124L741 97L794 97L794 106L847 106L847 119L900 119L900 97L900 151L900 151L847 151L847 151L794 151L794 151L741 151L741 151L688 151L688 151L635 151L635 151L582 151L582 151L529 151L529 151L476 151L476 151L424 151L424 151L371 151L371 151L318 151L318 151L265 151L265 151L212 151L212 151L159 151L159 151L106 151L106 151L53 151L53 151L0 151Z" fill="#044d64"></path><path d="M0 121L53 121L53 123L106 123L106 127L159 127L159 110L212 110L212 117L265 117L265 110L318 110L318 118L371 118L371 122L424 122L424 113L476 113L476 112L529 112L529 115L582 115L582 132L635 132L635 114L688 114L688 121L741 121L741 129L794 129L794 110L847 110L847 110L900 110L900 125L900 151L900 151L847 151L847 151L794 151L794 151L741 151L741 151L688 151L688 151L635 151L635 151L582 151L582 151L529 151L529 151L476 151L476 151L424 151L424 151L371 151L371 151L318 151L318 151L265 151L265 151L212 151L212 151L159 151L159 151L106 151L106 151L53 151L53 151L0 151Z" fill="#0d3b55"></path><path d="M0 127L53 127L53 124L106 124L106 133L159 133L159 140L212 140L212 135L265 135L265 131L318 131L318 139L371 139L371 134L424 134L424 134L476 134L476 136L529 136L529 129L582 129L582 134L635 134L635 125L688 125L688 130L741 130L741 125L794 125L794 132L847 132L847 129L900 129L900 139L900 151L900 151L847 151L847 151L794 151L794 151L741 151L741 151L688 151L688 151L635 151L635 151L582 151L582 151L529 151L529 151L476 151L476 151L424 151L424 151L371 151L371 151L318 151L318 151L265 151L265 151L212 151L212 151L159 151L159 151L106 151L106 151L53 151L53 151L0 151Z" fill="#112a43"></path></svg>