<svg id="visual" viewBox="0 0 1800 200" width="1800" height="200" xmlns="http://www.w3.org/2000/svg" xmlns:xlink="http://www.w3.org/1999/xlink" version="1.1"><rect x="0" y="0" width="1800" height="200" fill="#FCAF3C"></rect><path d="M0 91L42.8 85.7C85.7 80.3 171.3 69.7 257 71.7C342.7 73.7 428.3 88.3 514 92.3C599.7 96.3 685.3 89.7 771.2 82.7C857 75.7 943 68.3 1028.8 70.5C1114.7 72.7 1200.3 84.3 1286 83.3C1371.7 82.3 1457.3 68.7 1543 65.2C1628.7 61.7 1714.3 68.3 1757.2 71.7L1800 75L1800 201L1757.2 201C1714.3 201 1628.7 201 1543 201C1457.3 201 1371.7 201 1286 201C1200.3 201 1114.7 201 1028.8 201C943 201 857 201 771.2 201C685.3 201 599.7 201 514 201C428.3 201 342.7 201 257 201C171.3 201 85.7 201 42.8 201L0 201Z" fill="#2c2823"></path><path d="M0 78L42.8 79.8C85.7 81.7 171.3 85.3 257 86.3C342.7 87.3 428.3 85.7 514 83.5C599.7 81.3 685.3 78.7 771.2 78.2C857 77.7 943 79.3 1028.8 85.3C1114.7 91.3 1200.3 101.7 1286 100.8C1371.7 100 1457.3 88 1543 82.5C1628.7 77 1714.3 78 1757.2 78.5L1800 79L1800 201L1757.2 201C1714.3 201 1628.7 201 1543 201C1457.3 201 1371.7 201 1286 201C1200.3 201 1114.7 201 1028.8 201C943 201 857 201 771.2 201C685.3 201 599.7 201 514 201C428.3 201 342.7 201 257 201C171.3 201 85.7 201 42.8 201L0 201Z" fill="#443c2d"></path><path d="M0 111L42.8 112C85.7 113 171.3 115 257 120.3C342.7 125.7 428.3 134.3 514 136.8C599.7 139.3 685.3 135.7 771.2 130.7C857 125.7 943 119.3 1028.8 115.8C1114.7 112.3 1200.3 111.7 1286 115.3C1371.7 119 1457.3 127 1543 128.8C1628.7 130.7 1714.3 126.3 1757.2 124.2L1800 122L1800 201L1757.2 201C1714.3 201 1628.7 201 1543 201C1457.3 201 1371.7 201 1286 201C1200.3 201 1114.7 201 1028.8 201C943 201 857 201 771.2 201C685.3 201 599.7 201 514 201C428.3 201 342.7 201 257 201C171.3 201 85.7 201 42.8 201L0 201Z" fill="#5b5237"></path><path d="M0 154L42.8 150.2C85.7 146.3 171.3 138.7 257 138C342.7 137.3 428.3 143.7 514 148.7C599.7 153.7 685.3 157.3 771.2 158.8C857 160.3 943 159.7 1028.8 158.5C1114.7 157.3 1200.3 155.7 1286 155.3C1371.7 155 1457.3 156 1543 156.8C1628.7 157.7 1714.3 158.3 1757.2 158.7L1800 159L1800 201L1757.2 201C1714.3 201 1628.7 201 1543 201C1457.3 201 1371.7 201 1286 201C1200.3 201 1114.7 201 1028.8 201C943 201 857 201 771.2 201C685.3 201 599.7 201 514 201C428.3 201 342.7 201 257 201C171.3 201 85.7 201 42.8 201L0 201Z" fill="#716a41"></path><path d="M0 179L42.8 177.3C85.7 175.7 171.3 172.3 257 170C342.7 167.7 428.3 166.3 514 165.3C599.7 164.3 685.3 163.7 771.2 166.2C857 168.7 943 174.3 1028.8 173.3C1114.7 172.3 1200.3 164.7 1286 164.3C1371.7 164 1457.3 171 1543 172.8C1628.7 174.7 1714.3 171.3 1757.2 169.7L1800 168L1800 201L1757.2 201C1714.3 201 1628.7 201 1543 201C1457.3 201 1371.7 201 1286 201C1200.3 201 1114.7 201 1028.8 201C943 201 857 201 771.2 201C685.3 201 599.7 201 514 201C428.3 201 342.7 201 257 201C171.3 201 85.7 201 42.8 201L0 201Z" fill="#84844d"></path></svg>